# xmcd
#
# Track frame offsets: 
#        150
#        17078
#        39443
#        68387
#        84773
#        109403
#        134847
#        152600
#        175091
#
# Disc length: 2582 seconds
#
# Revision: 0
# Processed by: cddbd v1.5.2PL0 Copyright (c) Steve Scherf et al.
# Submitted via: ExactAudioCopyFreeDBPlugin 1.0
#
DISCID=680a1409
DTITLE=Back Pack Jones - Betsy's Kitchen
DYEAR=2013
DGENRE=Blues
TTITLE0=Riptide Baby
TTITLE1=I'm Just a Man
TTITLE2=Fixin'to Leave
TTITLE3=Baggage
TTITLE4=The End
TTITLE5=Even God Sings The Blues
TTITLE6=Hey Diddle Riddle
TTITLE7=Hiding in Plain Sight
TTITLE8=I Got a Girlfriend
EXTD=
EXTT0=
EXTT1=
EXTT2=
EXTT3=
EXTT4=
EXTT5=
EXTT6=
EXTT7=
EXTT8=
PLAYORDER=
